<svg width="475.733" height="79.785" viewBox="0 0 475.733 79.785" xmlns="http://www.w3.org/2000/svg"><g id="svgGroup" stroke-linecap="round" fill-rule="evenodd" font-size="9pt" stroke="#000" stroke-width="0.25mm" fill="#000" style="stroke:#000;stroke-width:0.25mm;fill:none"><path d="M 60.352 41.455 L 69.971 10.205 A 10.471 10.471 0 0 1 70.161 9.591 Q 70.325 9.116 70.508 8.765 A 1.18 1.18 0 0 1 70.867 8.361 Q 71.195 8.12 71.751 7.978 A 4.489 4.489 0 0 1 71.826 7.959 L 86.231 4.639 A 0.505 0.505 0 0 0 86.303 4.633 Q 86.341 4.627 86.384 4.617 A 1.261 1.261 0 0 0 86.475 4.59 A 1.274 1.274 0 0 1 86.561 4.564 Q 86.606 4.553 86.645 4.547 A 0.507 0.507 0 0 1 86.719 4.541 A 1.228 1.228 0 0 1 87.106 4.598 Q 87.486 4.724 87.671 5.127 A 3.154 3.154 0 0 1 87.864 5.666 A 2.375 2.375 0 0 1 87.94 6.25 Q 87.94 6.33 87.923 6.54 A 17.597 17.597 0 0 1 87.915 6.641 Q 87.892 6.917 87.847 7.02 A 0.247 0.247 0 0 1 87.842 7.031 L 67.627 68.457 Q 66.846 70.459 66.333 71.704 A 18.202 18.202 0 0 1 65.949 72.576 Q 65.748 72.998 65.548 73.353 A 8.842 8.842 0 0 1 65.308 73.755 A 5.958 5.958 0 0 1 64.612 74.655 A 5.027 5.027 0 0 1 64.136 75.098 A 6.501 6.501 0 0 1 63.58 75.5 Q 63.266 75.705 62.888 75.91 A 13.739 13.739 0 0 1 62.378 76.172 Q 61.286 76.706 59.639 77.409 A 104.402 104.402 0 0 1 59.619 77.417 Q 57.959 78.125 55.42 79.346 A 7.029 7.029 0 0 1 54.981 79.548 Q 54.411 79.785 54.053 79.785 A 1.646 1.646 0 0 1 53.562 79.716 A 1.245 1.245 0 0 1 52.881 79.199 A 5.329 5.329 0 0 1 52.36 78.194 A 6.191 6.191 0 0 1 52.246 77.881 L 43.897 48.145 L 33.447 69.678 Q 33.248 70.157 32.624 70.897 A 14.073 14.073 0 0 1 32.324 71.24 A 30.063 30.063 0 0 1 31.14 72.48 A 36.749 36.749 0 0 1 30.347 73.242 Q 29.248 74.268 28.15 75.22 Q 27.167 76.071 26.516 76.63 A 224.594 224.594 0 0 1 26.367 76.758 A 31.911 31.911 0 0 1 25.2 77.698 A 35.245 35.245 0 0 1 25.025 77.832 A 16.029 16.029 0 0 1 23.584 78.809 A 11.625 11.625 0 0 1 22.827 79.227 A 8.837 8.837 0 0 1 22.192 79.517 A 3.898 3.898 0 0 1 21.591 79.709 A 2.887 2.887 0 0 1 20.947 79.785 A 1.702 1.702 0 0 1 20.201 79.629 Q 19.548 79.315 19.287 78.369 L 0.342 11.572 Q 0.244 11.182 0.122 10.791 A 2.831 2.831 0 0 1 0.031 10.413 A 2.153 2.153 0 0 1 0 10.059 A 4.208 4.208 0 0 1 0.104 9.099 A 3.092 3.092 0 0 1 0.586 8.008 A 2.971 2.971 0 0 1 1.178 7.397 Q 1.488 7.152 1.895 6.934 A 7.42 7.42 0 0 1 2.637 6.592 A 11.414 11.414 0 0 1 3.759 6.215 Q 4.941 5.88 6.543 5.64 A 49.791 49.791 0 0 1 8.377 5.402 Q 9.327 5.296 10.419 5.203 A 114.814 114.814 0 0 1 12.744 5.029 A 81.96 81.96 0 0 1 13.588 4.916 Q 14.782 4.763 15.67 4.69 A 28.876 28.876 0 0 1 15.698 4.688 A 35.606 35.606 0 0 1 16.544 4.628 Q 16.875 4.609 17.17 4.599 A 17.226 17.226 0 0 1 17.725 4.59 A 7.218 7.218 0 0 1 18.297 4.611 Q 19.237 4.686 19.58 5.029 A 2.12 2.12 0 0 1 19.858 5.381 Q 20.132 5.805 20.361 6.494 L 30.42 45.215 L 38.77 30.859 L 35.4 16.162 A 12.583 12.583 0 0 1 35.279 15.631 Q 35.127 14.886 35.153 14.447 A 1.868 1.868 0 0 1 35.156 14.404 Q 35.156 13.348 35.675 12.68 A 2.21 2.21 0 0 1 35.742 12.598 A 2.714 2.714 0 0 1 36.292 12.119 Q 36.837 11.752 37.682 11.479 A 8.64 8.64 0 0 1 37.695 11.475 Q 38.614 11.179 39.918 10.928 A 36.981 36.981 0 0 1 41.284 10.693 A 230.674 230.674 0 0 1 43.091 10.423 Q 43.903 10.305 44.812 10.177 A 473.622 473.622 0 0 1 46.729 9.912 A 80.099 80.099 0 0 1 47.736 9.779 Q 48.132 9.73 48.491 9.69 A 42.011 42.011 0 0 1 49.17 9.619 A 25.793 25.793 0 0 1 49.898 9.56 Q 50.255 9.536 50.568 9.527 A 12.603 12.603 0 0 1 50.928 9.521 A 7.665 7.665 0 0 1 51.593 9.548 Q 52.235 9.604 52.627 9.779 A 1.332 1.332 0 0 1 52.93 9.961 Q 53.467 10.4 53.711 11.377 L 60.352 41.455 Z M 385.693 8.691 L 400.928 4.59 A 5.802 5.802 0 0 1 401.223 4.538 A 4.852 4.852 0 0 1 401.392 4.517 A 4.039 4.039 0 0 1 401.657 4.496 A 3.353 3.353 0 0 1 401.807 4.492 A 2.232 2.232 0 0 1 402.453 4.581 A 1.745 1.745 0 0 1 403.223 5.054 A 1.898 1.898 0 0 1 403.538 5.514 Q 403.824 6.08 403.955 7.031 A 48.335 48.335 0 0 0 404.012 7.515 Q 404.078 8.059 404.176 8.792 A 183.209 183.209 0 0 0 404.273 9.497 A 4032.732 4032.732 0 0 0 404.504 11.169 A 5400.854 5400.854 0 0 0 404.761 13.013 Q 405.029 14.941 405.347 16.992 A 320.364 320.364 0 0 1 405.646 18.964 A 248.309 248.309 0 0 1 405.908 20.776 A 263.784 263.784 0 0 0 406.085 22.008 Q 406.155 22.492 406.221 22.929 A 138.123 138.123 0 0 0 406.348 23.755 Q 406.537 24.962 406.589 25.32 A 15.264 15.264 0 0 1 406.592 25.342 Q 407.553 33.073 408.318 38.069 A 209.591 209.591 0 0 0 408.496 39.209 A 857.517 857.517 0 0 1 408.881 41.65 Q 409.412 45.056 409.668 46.924 L 412.94 73.34 L 412.451 74.854 Q 412.354 75.195 411.182 75.684 Q 410.01 76.172 408.35 76.733 A 58.807 58.807 0 0 1 406.616 77.289 A 73.065 73.065 0 0 1 404.736 77.832 A 443.133 443.133 0 0 1 402.857 78.345 A 346.01 346.01 0 0 1 401.123 78.809 Q 399.463 79.248 398.316 79.517 Q 397.278 79.759 397.139 79.783 A 0.152 0.152 0 0 1 397.119 79.785 A 1.533 1.533 0 0 1 395.998 79.289 Q 395.765 79.053 395.565 78.706 A 4.905 4.905 0 0 1 395.264 78.076 Q 394.754 76.801 394.38 75.01 A 31.995 31.995 0 0 1 394.141 73.73 A 66.084 66.084 0 0 1 393.7 70.61 A 83.924 83.924 0 0 1 393.433 67.969 A 192.278 192.278 0 0 0 392.989 63.419 A 170.907 170.907 0 0 0 392.822 61.963 Q 392.529 59.57 392.285 57.129 Q 392.041 54.688 391.748 52.148 L 389.844 37.891 L 371.729 71.045 Q 370.899 72.217 370.068 72.729 A 4.057 4.057 0 0 1 369.466 73.039 Q 368.967 73.242 368.506 73.242 A 2.924 2.924 0 0 1 367.801 73.162 A 1.993 1.993 0 0 1 366.821 72.607 A 3.417 3.417 0 0 1 366.043 71.3 A 4.123 4.123 0 0 1 365.967 71.045 A 969.124 969.124 0 0 0 365.309 68.872 Q 364.792 67.172 364.38 65.845 A 568.063 568.063 0 0 0 363.745 63.812 A 429.53 429.53 0 0 0 363.159 61.963 A 156.466 156.466 0 0 1 362.233 58.961 A 141.978 141.978 0 0 1 362.109 58.545 A 263.413 263.413 0 0 1 361.659 56.994 Q 361.354 55.934 361.011 54.712 Q 360.591 53.218 360.102 51.355 A 315.733 315.733 0 0 1 359.644 49.585 A 918.929 918.929 0 0 1 359.031 47.181 Q 358.758 46.1 358.453 44.888 A 1900.391 1900.391 0 0 1 357.813 42.334 L 356.299 49.365 L 349.268 79.199 Q 349.121 79.785 348.047 79.785 Q 347.121 79.785 345.577 79.466 A 28.386 28.386 0 0 1 345.239 79.395 A 54.772 54.772 0 0 1 342.498 78.717 A 63.23 63.23 0 0 1 341.528 78.442 Q 339.6 77.881 337.769 77.271 Q 336.021 76.688 334.963 76.217 A 14.379 14.379 0 0 1 334.863 76.172 A 0.967 0.967 0 0 1 334.708 76.09 Q 334.511 75.966 334.253 75.708 A 1.115 1.115 0 0 1 333.997 75.293 Q 333.933 75.117 333.906 74.9 A 2.769 2.769 0 0 1 333.887 74.561 A 1.005 1.005 0 0 1 333.894 74.454 Q 333.913 74.28 333.985 73.948 A 15.79 15.79 0 0 1 334.033 73.73 Q 334.18 73.096 334.4 72.241 A 40.159 40.159 0 0 1 334.888 70.508 Q 335.156 69.629 335.4 68.945 A 23.444 23.444 0 0 0 335.933 67.381 Q 336.178 66.572 336.401 65.659 A 40.48 40.48 0 0 0 336.548 65.039 Q 337.061 62.793 337.5 60.498 Q 337.94 58.203 338.306 56.104 Q 338.672 54.004 339.014 52.588 L 345.02 24.561 L 346.826 16.65 A 581.43 581.43 0 0 0 347.485 13.696 Q 347.803 12.256 348.047 11.084 Q 348.265 10.036 348.406 9.339 A 127.742 127.742 0 0 0 348.438 9.18 A 49.215 49.215 0 0 0 348.472 9.007 Q 348.584 8.435 348.584 8.35 L 360.791 4.59 Q 361.403 4.59 361.877 4.688 A 3.657 3.657 0 0 1 361.987 4.712 Q 362.5 4.834 362.647 5.518 L 372.363 36.768 L 385.693 8.691 Z M 123.096 49.316 L 116.309 49.463 L 114.942 64.404 L 139.99 64.404 L 139.99 66.309 A 0.655 0.655 0 0 0 139.935 66.379 Q 139.761 66.621 139.16 67.603 Q 138.428 68.799 137.451 70.459 A 109.182 109.182 0 0 1 135.4 73.804 A 104.52 104.52 0 0 1 134.885 74.605 Q 134.247 75.584 133.752 76.29 A 33.115 33.115 0 0 1 133.594 76.514 A 5.592 5.592 0 0 1 133.113 77.246 A 4.051 4.051 0 0 1 132.471 77.905 A 4.301 4.301 0 0 1 131.079 78.662 A 6.122 6.122 0 0 1 130.023 78.898 A 7.477 7.477 0 0 1 129.419 78.955 A 32.343 32.343 0 0 1 128.473 78.992 A 41.841 41.841 0 0 1 127.442 79.004 A 216.927 216.927 0 0 1 120.644 78.894 A 244.717 244.717 0 0 1 118.286 78.809 Q 113.525 78.613 108.789 78.32 A 485.174 485.174 0 0 1 99.536 77.661 A 473.702 473.702 0 0 1 95.184 77.289 A 375.011 375.011 0 0 1 91.162 76.904 A 0.83 0.83 0 0 1 90.764 76.729 Q 90.66 76.648 90.565 76.53 A 1.562 1.562 0 0 1 90.552 76.514 A 1.23 1.23 0 0 1 90.283 75.732 Q 90.088 75.732 90.552 74.902 A 27.884 27.884 0 0 1 90.807 74.457 Q 91.165 73.843 91.675 73.027 A 91.604 91.604 0 0 1 91.846 72.754 Q 92.621 71.523 93.545 69.973 A 187.414 187.414 0 0 0 93.677 69.751 A 100.591 100.591 0 0 0 95.606 66.357 L 96.387 55.371 Q 96.581 52.6 96.703 51.233 A 83.031 83.031 0 0 1 96.704 51.221 A 361.618 361.618 0 0 0 96.733 50.899 Q 96.818 49.936 96.826 49.779 A 0.524 0.524 0 0 0 96.826 49.756 A 64.036 64.036 0 0 1 95.455 49.719 Q 94.023 49.665 93.059 49.549 A 12.638 12.638 0 0 1 92.456 49.463 Q 91.449 49.292 91.146 48.835 A 0.79 0.79 0 0 1 91.016 48.389 Q 91.016 48.049 91.552 47.19 A 13.27 13.27 0 0 1 91.724 46.924 Q 92.21 46.185 92.847 45.297 A 78.575 78.575 0 0 1 93.457 44.458 A 257.639 257.639 0 0 1 95.064 42.302 A 296.358 296.358 0 0 1 95.63 41.553 A 93.848 93.848 0 0 0 96.71 40.1 A 68.826 68.826 0 0 0 97.656 38.77 L 98.877 22.168 L 98.731 22.168 Q 97.656 22.217 96.777 22.241 A 66.85 66.85 0 0 1 95.935 22.26 A 50.848 50.848 0 0 1 95.166 22.266 A 32.7 32.7 0 0 1 94.078 22.249 Q 93.035 22.214 92.355 22.107 A 5.205 5.205 0 0 1 91.821 21.997 Q 91.325 21.864 91.075 21.617 A 0.838 0.838 0 0 1 90.82 20.996 A 0.771 0.771 0 0 1 90.848 20.812 Q 90.926 20.508 91.217 19.938 A 14.848 14.848 0 0 1 91.406 19.58 Q 91.809 18.842 92.35 17.953 A 61.2 61.2 0 0 1 92.871 17.114 A 1349.375 1349.375 0 0 1 93.775 15.686 A 1571.057 1571.057 0 0 1 94.727 14.185 A 124.705 124.705 0 0 0 95.654 12.701 A 96.235 96.235 0 0 0 96.484 11.328 L 99.414 6.348 L 119.824 6.348 L 143.897 4.59 A 0.451 0.451 0 0 1 143.921 4.591 Q 143.981 4.594 144.138 4.611 A 16.833 16.833 0 0 1 144.165 4.614 A 1.196 1.196 0 0 1 144.405 4.668 Q 144.515 4.704 144.629 4.761 Q 144.84 4.866 145.034 5.1 A 2.055 2.055 0 0 1 145.093 5.176 Q 145.264 5.404 145.302 5.782 A 2.259 2.259 0 0 1 145.313 6.006 L 144.58 8.545 A 28.262 28.262 0 0 1 144.096 9.935 A 34.648 34.648 0 0 1 143.75 10.815 A 58.243 58.243 0 0 1 142.963 12.651 A 65.526 65.526 0 0 1 142.676 13.281 L 140.527 18.945 Q 140.28 19.546 139.982 19.942 A 2.584 2.584 0 0 1 139.746 20.215 A 1.131 1.131 0 0 1 139.405 20.439 Q 139.06 20.593 138.495 20.659 A 7.407 7.407 0 0 1 137.891 20.703 A 327.42 327.42 0 0 0 133.966 20.831 A 447.028 447.028 0 0 0 129.614 21.021 A 565.61 565.61 0 0 1 125.363 21.208 Q 123.189 21.296 120.776 21.38 A 968.411 968.411 0 0 1 119.141 21.436 A 7.174 7.174 0 0 0 119.038 21.834 Q 118.945 22.248 118.945 22.534 A 6.264 6.264 0 0 1 118.94 22.77 Q 118.923 23.224 118.848 24.121 L 118.604 26.367 A 67.021 67.021 0 0 1 118.482 27.991 A 83.796 83.796 0 0 1 118.311 29.736 A 1073.663 1073.663 0 0 1 118.15 31.208 Q 118.078 31.87 117.996 32.613 A 2241.98 2241.98 0 0 1 117.822 34.18 A 2410.421 2410.421 0 0 0 122.681 33.984 A 1345.945 1345.945 0 0 1 124.945 33.893 A 1008.461 1008.461 0 0 1 127.002 33.813 Q 128.345 33.763 129.445 33.724 A 694.436 694.436 0 0 1 130.396 33.691 A 165.814 165.814 0 0 1 131.062 33.67 Q 131.885 33.645 132.324 33.643 A 16.622 16.622 0 0 1 132.422 33.643 A 1.261 1.261 0 0 1 132.769 33.695 Q 132.921 33.738 133.085 33.818 A 2.804 2.804 0 0 1 133.301 33.936 A 0.917 0.917 0 0 1 133.689 34.417 Q 133.752 34.583 133.775 34.792 A 2.392 2.392 0 0 1 133.789 35.059 A 2.496 2.496 0 0 1 133.757 35.445 Q 133.721 35.677 133.643 35.938 A 8.249 8.249 0 0 1 133.506 36.366 Q 133.345 36.83 133.082 37.463 A 35.524 35.524 0 0 1 132.91 37.866 Q 132.409 39.029 131.758 40.468 A 233.676 233.676 0 0 1 131.665 40.674 A 3754.973 3754.973 0 0 0 130.933 42.291 A 4574.874 4574.874 0 0 0 130.151 44.019 A 239.093 239.093 0 0 0 128.565 47.607 A 9.028 9.028 0 0 1 128.404 47.963 Q 128.24 48.303 128.093 48.517 A 2.032 2.032 0 0 1 128.027 48.608 Q 127.824 48.873 127.416 49.019 A 2.305 2.305 0 0 1 127.246 49.072 Q 126.761 49.205 125.937 49.237 A 12.838 12.838 0 0 1 125.757 49.243 A 480.382 480.382 0 0 0 125.234 49.257 Q 124.645 49.273 123.855 49.295 A 1783.826 1783.826 0 0 0 123.096 49.316 Z M 453.516 49.316 L 446.729 49.463 L 445.361 64.404 L 470.41 64.404 L 470.41 66.309 A 0.655 0.655 0 0 0 470.355 66.379 Q 470.181 66.621 469.58 67.603 Q 468.848 68.799 467.871 70.459 A 109.182 109.182 0 0 1 465.82 73.804 A 104.52 104.52 0 0 1 465.305 74.605 Q 464.667 75.584 464.172 76.29 A 33.115 33.115 0 0 1 464.014 76.514 A 5.592 5.592 0 0 1 463.533 77.246 A 4.051 4.051 0 0 1 462.891 77.905 A 4.301 4.301 0 0 1 461.499 78.662 A 6.122 6.122 0 0 1 460.443 78.898 A 7.477 7.477 0 0 1 459.839 78.955 A 32.343 32.343 0 0 1 458.893 78.992 A 41.841 41.841 0 0 1 457.861 79.004 A 216.927 216.927 0 0 1 451.064 78.894 A 244.717 244.717 0 0 1 448.706 78.809 Q 443.945 78.613 439.209 78.32 A 485.174 485.174 0 0 1 429.956 77.661 A 473.702 473.702 0 0 1 425.604 77.289 A 375.011 375.011 0 0 1 421.582 76.904 A 0.83 0.83 0 0 1 421.184 76.729 Q 421.08 76.648 420.984 76.53 A 1.562 1.562 0 0 1 420.972 76.514 A 1.23 1.23 0 0 1 420.703 75.732 Q 420.508 75.732 420.972 74.902 A 27.884 27.884 0 0 1 421.227 74.457 Q 421.585 73.843 422.095 73.027 A 91.604 91.604 0 0 1 422.266 72.754 Q 423.041 71.523 423.965 69.973 A 187.414 187.414 0 0 0 424.097 69.751 A 100.591 100.591 0 0 0 426.025 66.357 L 426.807 55.371 Q 427.001 52.6 427.123 51.233 A 83.031 83.031 0 0 1 427.124 51.221 A 361.618 361.618 0 0 0 427.153 50.899 Q 427.238 49.936 427.245 49.779 A 0.524 0.524 0 0 0 427.246 49.756 A 64.036 64.036 0 0 1 425.874 49.719 Q 424.443 49.665 423.479 49.549 A 12.638 12.638 0 0 1 422.876 49.463 Q 421.869 49.292 421.566 48.835 A 0.79 0.79 0 0 1 421.436 48.389 Q 421.436 48.049 421.972 47.19 A 13.27 13.27 0 0 1 422.144 46.924 Q 422.63 46.185 423.267 45.297 A 78.575 78.575 0 0 1 423.877 44.458 A 257.639 257.639 0 0 1 425.484 42.302 A 296.358 296.358 0 0 1 426.05 41.553 A 93.848 93.848 0 0 0 427.13 40.1 A 68.826 68.826 0 0 0 428.076 38.77 L 429.297 22.168 L 429.15 22.168 Q 428.076 22.217 427.197 22.241 A 66.85 66.85 0 0 1 426.355 22.26 A 50.848 50.848 0 0 1 425.586 22.266 A 32.7 32.7 0 0 1 424.498 22.249 Q 423.455 22.214 422.775 22.107 A 5.205 5.205 0 0 1 422.241 21.997 Q 421.745 21.864 421.495 21.617 A 0.838 0.838 0 0 1 421.24 20.996 A 0.771 0.771 0 0 1 421.268 20.812 Q 421.346 20.508 421.637 19.938 A 14.848 14.848 0 0 1 421.826 19.58 Q 422.229 18.842 422.77 17.953 A 61.2 61.2 0 0 1 423.291 17.114 A 1349.375 1349.375 0 0 1 424.194 15.686 A 1571.057 1571.057 0 0 1 425.147 14.185 A 124.705 124.705 0 0 0 426.074 12.701 A 96.235 96.235 0 0 0 426.904 11.328 L 429.834 6.348 L 450.244 6.348 L 474.317 4.59 A 0.451 0.451 0 0 1 474.341 4.591 Q 474.401 4.594 474.558 4.611 A 16.833 16.833 0 0 1 474.585 4.614 A 1.196 1.196 0 0 1 474.825 4.668 Q 474.934 4.704 475.049 4.761 Q 475.26 4.866 475.454 5.1 A 2.055 2.055 0 0 1 475.513 5.176 Q 475.684 5.404 475.722 5.782 A 2.259 2.259 0 0 1 475.733 6.006 L 475 8.545 A 28.262 28.262 0 0 1 474.516 9.935 A 34.648 34.648 0 0 1 474.17 10.815 A 58.243 58.243 0 0 1 473.383 12.651 A 65.526 65.526 0 0 1 473.096 13.281 L 470.947 18.945 Q 470.7 19.546 470.402 19.942 A 2.584 2.584 0 0 1 470.166 20.215 A 1.131 1.131 0 0 1 469.825 20.439 Q 469.48 20.593 468.915 20.659 A 7.407 7.407 0 0 1 468.311 20.703 A 327.42 327.42 0 0 0 464.386 20.831 A 447.028 447.028 0 0 0 460.034 21.021 A 565.61 565.61 0 0 1 455.783 21.208 Q 453.609 21.296 451.196 21.38 A 968.411 968.411 0 0 1 449.561 21.436 A 7.174 7.174 0 0 0 449.458 21.834 Q 449.365 22.248 449.365 22.534 A 6.264 6.264 0 0 1 449.36 22.77 Q 449.342 23.224 449.268 24.121 L 449.024 26.367 A 67.021 67.021 0 0 1 448.901 27.991 A 83.796 83.796 0 0 1 448.731 29.736 A 1073.663 1073.663 0 0 1 448.57 31.208 Q 448.498 31.87 448.416 32.613 A 2241.98 2241.98 0 0 1 448.242 34.18 A 2410.421 2410.421 0 0 0 453.101 33.984 A 1345.945 1345.945 0 0 1 455.365 33.893 A 1008.461 1008.461 0 0 1 457.422 33.813 Q 458.765 33.763 459.865 33.724 A 694.436 694.436 0 0 1 460.816 33.691 A 165.814 165.814 0 0 1 461.482 33.67 Q 462.305 33.645 462.744 33.643 A 16.622 16.622 0 0 1 462.842 33.643 A 1.261 1.261 0 0 1 463.189 33.695 Q 463.341 33.738 463.505 33.818 A 2.804 2.804 0 0 1 463.721 33.936 A 0.917 0.917 0 0 1 464.109 34.417 Q 464.171 34.583 464.195 34.792 A 2.392 2.392 0 0 1 464.209 35.059 A 2.496 2.496 0 0 1 464.177 35.445 Q 464.141 35.677 464.063 35.938 A 8.249 8.249 0 0 1 463.926 36.366 Q 463.765 36.83 463.501 37.463 A 35.524 35.524 0 0 1 463.33 37.866 Q 462.829 39.029 462.178 40.468 A 233.676 233.676 0 0 1 462.085 40.674 A 3754.973 3754.973 0 0 0 461.353 42.291 A 4574.874 4574.874 0 0 0 460.571 44.019 A 239.093 239.093 0 0 0 458.984 47.607 A 9.028 9.028 0 0 1 458.824 47.963 Q 458.66 48.303 458.513 48.517 A 2.032 2.032 0 0 1 458.447 48.608 Q 458.244 48.873 457.836 49.019 A 2.305 2.305 0 0 1 457.666 49.072 Q 457.181 49.205 456.357 49.237 A 12.838 12.838 0 0 1 456.177 49.243 A 480.382 480.382 0 0 0 455.653 49.257 Q 455.065 49.273 454.275 49.295 A 1783.826 1783.826 0 0 0 453.516 49.316 Z M 249.463 59.912 L 249.463 65.771 A 198.515 198.515 0 0 1 249.439 68.921 A 809.223 809.223 0 0 1 249.416 70.293 Q 249.404 70.939 249.393 71.516 A 482.052 482.052 0 0 1 249.39 71.68 A 277.609 277.609 0 0 1 249.378 72.261 Q 249.362 72.973 249.346 73.492 A 84.331 84.331 0 0 1 249.341 73.657 Q 249.318 74.374 249.273 74.412 A 0.008 0.008 0 0 1 249.268 74.414 A 23.847 23.847 0 0 1 244.458 76.733 Q 241.895 77.637 239.185 78.149 A 44.038 44.038 0 0 1 233.74 78.833 A 87.063 87.063 0 0 1 229.749 78.993 A 77.651 77.651 0 0 1 228.467 79.004 A 31.964 31.964 0 0 1 215.576 76.392 A 31.352 31.352 0 0 1 205.151 69.092 Q 200.733 64.404 198.193 57.861 Q 195.654 51.318 195.654 43.457 A 40.717 40.717 0 0 1 196.948 33.13 A 39.379 39.379 0 0 1 200.635 23.877 A 37.388 37.388 0 0 1 206.421 16.064 A 36.745 36.745 0 0 1 214.014 10.034 Q 218.213 7.52 223.12 6.152 A 38.068 38.068 0 0 1 232.772 4.79 A 42.598 42.598 0 0 1 233.447 4.785 A 55.818 55.818 0 0 1 237.006 4.893 Q 238.625 4.996 240.057 5.2 A 31.489 31.489 0 0 1 240.991 5.347 A 43.194 43.194 0 0 1 243.674 5.894 Q 245.296 6.282 246.655 6.763 Q 248.723 7.494 250.219 8.35 A 14.198 14.198 0 0 1 250.708 8.643 A 29.148 29.148 0 0 1 251.944 9.46 Q 252.519 9.862 253 10.248 A 15.112 15.112 0 0 1 253.418 10.596 A 0.024 0.024 0 0 0 253.399 10.613 Q 253.375 10.661 253.37 10.846 A 3.819 3.819 0 0 0 253.369 10.938 A 14.916 14.916 0 0 0 253.376 11.348 Q 253.393 11.945 253.451 12.961 A 140.834 140.834 0 0 0 253.491 13.623 A 423.259 423.259 0 0 0 253.626 15.686 A 574.006 574.006 0 0 0 253.784 17.969 Q 253.955 20.361 254.077 22.827 Q 254.171 24.715 254.193 26.217 A 60.613 60.613 0 0 1 254.199 27.1 A 1.06 1.06 0 0 1 254.163 27.365 Q 254.133 27.481 254.079 27.605 A 2.213 2.213 0 0 1 254.004 27.759 A 0.563 0.563 0 0 1 253.752 27.994 Q 253.494 28.125 253.027 28.125 A 3.366 3.366 0 0 1 252.67 28.104 Q 252.49 28.085 252.286 28.048 A 7.44 7.44 0 0 1 251.953 27.979 Q 251.027 27.714 249.662 26.832 A 20.154 20.154 0 0 1 249.365 26.636 A 41.182 41.182 0 0 0 247.788 25.63 Q 246.95 25.121 246.001 24.59 A 67.72 67.72 0 0 0 245.728 24.438 A 28.323 28.323 0 0 0 242.943 23.1 A 34.801 34.801 0 0 0 241.089 22.388 A 16.023 16.023 0 0 0 237.006 21.543 A 19.179 19.179 0 0 0 235.498 21.484 A 17.473 17.473 0 0 0 230.835 22.089 A 15.275 15.275 0 0 0 228.223 23.071 A 16.412 16.412 0 0 0 222.656 27.441 A 19.403 19.403 0 0 0 219.839 32.095 A 23.465 23.465 0 0 0 219.092 34.058 A 25.159 25.159 0 0 0 217.928 39.866 A 30.427 30.427 0 0 0 217.822 42.432 A 32.944 32.944 0 0 0 218.448 48.928 A 30.088 30.088 0 0 0 218.701 50.073 A 22.306 22.306 0 0 0 219.976 53.88 A 18.174 18.174 0 0 0 221.362 56.445 A 14.049 14.049 0 0 0 225.806 60.815 A 11.044 11.044 0 0 0 230.382 62.361 A 13.932 13.932 0 0 0 231.983 62.451 Q 234.374 62.451 236.297 62.307 A 39.204 39.204 0 0 0 236.914 62.256 A 30.706 30.706 0 0 0 239.485 61.916 A 25.515 25.515 0 0 0 240.918 61.621 Q 242.774 61.182 244.556 60.449 A 33.34 33.34 0 0 0 246.405 59.619 A 44.565 44.565 0 0 0 248.389 58.594 Q 248.469 58.554 248.748 58.546 A 5.079 5.079 0 0 1 248.877 58.545 A 0.671 0.671 0 0 1 249.052 58.566 A 0.426 0.426 0 0 1 249.341 58.813 Q 249.463 59.082 249.463 59.912 Z M 281.429 78.232 A 33.567 33.567 0 0 0 288.77 79.004 Q 294.58 79.004 299.976 77.661 A 42.746 42.746 0 0 0 310.059 73.779 A 39.983 39.983 0 0 0 318.579 67.603 A 38.073 38.073 0 0 0 325.147 59.351 A 38.805 38.805 0 0 0 325.484 58.77 A 41.468 41.468 0 0 0 329.395 49.268 A 39.924 39.924 0 0 0 330.126 46.133 A 45.261 45.261 0 0 0 330.908 37.598 Q 330.908 32.424 330.104 28.096 A 33.804 33.804 0 0 0 328.101 21.216 A 33.132 33.132 0 0 0 327.9 20.747 A 28.391 28.391 0 0 0 320.02 10.107 A 33.239 33.239 0 0 0 314.572 6.433 A 41.371 41.371 0 0 0 307.178 3.345 A 75.886 75.886 0 0 0 299.133 1.324 A 99.982 99.982 0 0 0 290.137 0 A 0.795 0.795 0 0 0 289.565 0.242 Q 289.439 0.365 289.333 0.549 A 2.497 2.497 0 0 0 289.16 0.928 A 13.567 13.567 0 0 0 288.88 1.777 A 17.012 17.012 0 0 0 288.574 2.979 A 21.116 21.116 0 0 1 288.347 3.924 A 16.645 16.645 0 0 1 288.013 5.029 Q 287.695 5.957 287.109 5.957 A 40.756 40.756 0 0 0 275.269 11.06 Q 269.873 14.502 265.967 19.507 A 35.806 35.806 0 0 0 264.341 21.767 A 39.194 39.194 0 0 0 259.888 30.981 A 39.899 39.899 0 0 0 258.553 36.056 A 47.292 47.292 0 0 0 257.715 45.117 A 43.988 43.988 0 0 0 257.715 45.171 A 39.289 39.289 0 0 0 259.839 58.081 A 37.467 37.467 0 0 0 259.974 58.463 A 33.075 33.075 0 0 0 265.942 68.872 A 28.943 28.943 0 0 0 275.684 76.27 A 27.2 27.2 0 0 0 281.429 78.232 Z M 168.897 63.428 L 189.111 61.377 A 33.234 33.234 0 0 1 189.994 61.294 Q 190.781 61.23 191.358 61.23 A 5.227 5.227 0 0 1 191.789 61.247 Q 192.49 61.305 192.7 61.572 A 1.048 1.048 0 0 1 192.861 61.876 Q 192.962 62.163 192.968 62.586 A 3.865 3.865 0 0 1 192.969 62.646 A 0.545 0.545 0 0 1 192.964 62.714 Q 192.955 62.785 192.929 62.882 A 2.196 2.196 0 0 1 192.92 62.915 A 3.668 3.668 0 0 1 192.893 63.005 Q 192.848 63.149 192.759 63.406 A 42.788 42.788 0 0 1 192.7 63.574 A 106.173 106.173 0 0 0 192.606 63.846 Q 192.45 64.294 192.212 64.99 A 86.918 86.918 0 0 0 192.04 65.5 Q 191.848 66.073 191.597 66.84 A 316.831 316.831 0 0 0 191.358 67.578 L 190.283 70.801 A 138.723 138.723 0 0 1 189.772 72.262 Q 189.518 72.976 189.282 73.608 A 9.419 9.419 0 0 1 188.727 74.835 A 7.403 7.403 0 0 1 188.135 75.757 A 5.055 5.055 0 0 1 186.426 77.197 Q 185.604 77.628 184.406 77.807 A 10.699 10.699 0 0 1 183.789 77.881 Q 182.764 77.979 181.006 78.052 A 335.73 335.73 0 0 1 179.365 78.116 Q 178.524 78.147 177.588 78.178 A 585.528 585.528 0 0 1 176.953 78.198 A 931.904 931.904 0 0 0 174.567 78.278 A 1163.631 1163.631 0 0 0 171.997 78.369 Q 169.336 78.467 166.553 78.613 Q 163.818 78.711 161.035 78.735 Q 158.252 78.76 155.762 78.809 A 1436.446 1436.446 0 0 0 153.369 78.857 A 1112.647 1112.647 0 0 0 151.172 78.906 Q 149.177 78.953 147.843 78.999 A 148.986 148.986 0 0 0 147.705 79.004 Q 146.719 79.004 146.16 78.886 A 2.352 2.352 0 0 1 145.874 78.809 A 1.294 1.294 0 0 1 145.635 78.7 Q 145.509 78.624 145.432 78.528 A 0.552 0.552 0 0 1 145.313 78.174 A 2.399 2.399 0 0 1 145.34 77.835 Q 145.392 77.468 145.548 76.961 A 11.263 11.263 0 0 1 145.654 76.636 A 25.212 25.212 0 0 1 145.991 75.713 Q 146.231 75.09 146.533 74.39 A 55.947 55.947 0 0 1 147.388 72.508 A 64.751 64.751 0 0 1 147.73 71.802 A 399.597 399.597 0 0 1 149.024 69.189 L 150.342 51.758 Q 150.733 47.314 151.123 42.725 A 536.928 536.928 0 0 0 151.732 34.917 A 484.882 484.882 0 0 0 151.807 33.838 L 152.637 20.898 Q 152.919 16.48 153.02 14.392 A 120.198 120.198 0 0 0 153.027 14.233 Q 153.12 12.275 153.125 11.991 A 1.585 1.585 0 0 0 153.125 11.963 A 84.971 84.971 0 0 0 153.171 11.542 Q 153.233 10.957 153.269 10.527 A 29.208 29.208 0 0 0 153.272 10.498 Q 153.308 10.055 153.387 9.724 A 3.023 3.023 0 0 1 153.442 9.521 A 1.57 1.57 0 0 1 153.55 9.258 Q 153.655 9.058 153.809 8.936 A 1.092 1.092 0 0 1 154.021 8.805 Q 154.232 8.705 154.54 8.643 A 9.641 9.641 0 0 1 154.541 8.643 L 171.68 4.59 A 2.974 2.974 0 0 1 172.194 4.457 Q 172.444 4.414 172.73 4.401 A 5.751 5.751 0 0 1 172.998 4.395 A 1.42 1.42 0 0 1 173.275 4.42 Q 173.431 4.451 173.548 4.52 A 0.652 0.652 0 0 1 173.755 4.712 A 0.877 0.877 0 0 1 173.861 4.935 Q 173.937 5.164 173.962 5.525 A 5.56 5.56 0 0 1 173.975 5.908 A 1.088 1.088 0 0 1 173.972 5.976 Q 173.968 6.047 173.955 6.144 A 4.046 4.046 0 0 1 173.95 6.177 A 2.51 2.51 0 0 0 173.931 6.361 A 1.961 1.961 0 0 0 173.926 6.494 Q 173.878 7.652 173.734 9.358 A 117.61 117.61 0 0 1 173.731 9.399 A 834.781 834.781 0 0 1 173.578 11.182 A 980.179 980.179 0 0 1 173.413 13.062 Q 173.242 14.99 173.023 16.968 Q 172.803 18.945 172.632 20.605 A 186.625 186.625 0 0 0 172.514 21.785 Q 172.469 22.25 172.432 22.669 A 97.522 97.522 0 0 0 172.363 23.462 Q 172.269 24.622 172.266 24.978 A 2.673 2.673 0 0 0 172.266 25 Q 172.07 28.027 171.851 30.615 Q 171.631 33.203 171.387 35.742 A 1787.213 1787.213 0 0 1 170.941 40.316 A 1967.506 1967.506 0 0 1 170.874 40.991 Q 170.606 43.701 170.313 46.973 A 3331.811 3331.811 0 0 1 170.001 50.427 A 4509.568 4509.568 0 0 1 169.653 54.248 Q 169.339 57.689 169.006 61.995 A 804.379 804.379 0 0 0 168.897 63.428 Z M 279.248 43.164 A 33.666 33.666 0 0 0 280.005 50.22 A 20.556 20.556 0 0 0 281.61 54.943 A 18.411 18.411 0 0 0 282.52 56.592 A 13.9 13.9 0 0 0 287.158 61.182 Q 289.939 62.878 293.993 62.937 A 20.191 20.191 0 0 0 294.287 62.939 A 18.327 18.327 0 0 0 297.267 62.527 A 13.762 13.762 0 0 0 300.025 61.597 A 14.448 14.448 0 0 0 303.699 59.174 A 13.513 13.513 0 0 0 304.273 58.618 A 16.407 16.407 0 0 0 307.227 54.419 A 26.088 26.088 0 0 0 309.082 49.438 Q 309.766 46.826 310.034 44.092 A 55.199 55.199 0 0 0 310.293 39.777 A 49.066 49.066 0 0 0 310.303 38.818 Q 310.303 35.352 309.375 32.104 A 18.255 18.255 0 0 0 307.587 27.87 A 16.332 16.332 0 0 0 306.592 26.367 A 14.201 14.201 0 0 0 301.978 22.363 A 12.172 12.172 0 0 0 297.863 21.013 A 15.788 15.788 0 0 0 295.557 20.85 A 13.327 13.327 0 0 0 292.493 21.189 A 11.157 11.157 0 0 0 290.357 21.924 Q 288.037 22.998 286.231 24.78 Q 284.424 26.563 283.13 28.882 A 29.905 29.905 0 0 0 280.982 33.667 A 30.517 30.517 0 0 0 279.712 38.599 A 36.337 36.337 0 0 0 279.374 41.115 A 27.953 27.953 0 0 0 279.248 43.164 Z" vector-effect="non-scaling-stroke"/></g></svg>