<?xml version="1.0" encoding="utf-8"?>
<!-- Generator: Adobe Illustrator 18.0.0, SVG Export Plug-In . SVG Version: 6.00 Build 0)  -->
<!DOCTYPE svg PUBLIC "-//W3C//DTD SVG 1.1//EN" "http://www.w3.org/Graphics/SVG/1.1/DTD/svg11.dtd">
<svg version="1.1" id="Layer_1" xmlns="http://www.w3.org/2000/svg" xmlns:xlink="http://www.w3.org/1999/xlink" x="0px" y="0px"
	 viewBox="0 0 499.6 146.8" enable-background="new 0 0 499.6 146.8" xml:space="preserve">
<g>
	<g>
		<path fill="#676767" d="M39,140.8c0.7,0,1.2-0.1,1.7-0.3c0.5-0.2,0.8-0.5,1.1-0.9s0.5-0.8,0.7-1.3c0.1-0.5,0.2-1,0.2-1.5v-0.3h1.9
			v0.3c0,0.8-0.1,1.6-0.4,2.3c-0.2,0.7-0.6,1.3-1.1,1.9c-0.5,0.5-1.1,0.9-1.8,1.2c-0.7,0.3-1.5,0.4-2.4,0.4c-1.8,0-3.2-0.6-4.2-1.7
			c-1-1.1-1.5-2.8-1.5-4.9v-3.6c0-2.1,0.5-3.7,1.5-4.8c1-1.1,2.4-1.7,4.2-1.7c0.9,0,1.7,0.2,2.4,0.4c0.7,0.3,1.3,0.7,1.8,1.2
			c0.5,0.5,0.8,1.1,1.1,1.9c0.2,0.7,0.4,1.5,0.4,2.3v0.3h-1.9v-0.3c0-0.5-0.1-1-0.2-1.5s-0.4-0.9-0.7-1.3s-0.7-0.7-1.1-0.9
			c-0.5-0.2-1-0.3-1.7-0.3c-1.2,0-2.2,0.5-2.8,1.4c-0.6,0.9-0.9,2.1-0.9,3.6v3.3c0,1.6,0.3,2.8,0.9,3.6
			C36.8,140.3,37.7,140.8,39,140.8z"/>
		<path fill="#676767" d="M47.9,140.6H52v-12.8h-4v-1.7h5.8v14.4H58v1.7H47.9V140.6z"/>
		<path fill="#676767" d="M72.7,136.7c0,1-0.2,1.8-0.5,2.5c-0.3,0.7-0.7,1.3-1.3,1.8s-1.1,0.9-1.8,1.1c-0.7,0.3-1.4,0.4-2.2,0.4
			c-0.8,0-1.5-0.1-2.2-0.4s-1.3-0.6-1.8-1.1c-0.5-0.5-0.9-1.1-1.3-1.8c-0.3-0.7-0.5-1.6-0.5-2.5v-0.3c0-0.9,0.2-1.8,0.5-2.5
			c0.3-0.7,0.7-1.3,1.3-1.8c0.5-0.5,1.1-0.9,1.8-1.1c0.7-0.3,1.4-0.4,2.2-0.4s1.5,0.1,2.2,0.4c0.7,0.3,1.3,0.6,1.8,1.1
			c0.5,0.5,0.9,1.1,1.3,1.8c0.3,0.7,0.5,1.6,0.5,2.5V136.7z M67,140.9c0.6,0,1.1-0.1,1.5-0.3c0.5-0.2,0.9-0.5,1.2-0.8
			c0.4-0.4,0.6-0.8,0.8-1.3c0.2-0.5,0.3-1.1,0.3-1.7v-0.3c0-0.6-0.1-1.2-0.3-1.7c-0.2-0.5-0.5-1-0.8-1.3c-0.4-0.4-0.8-0.7-1.2-0.9
			c-0.5-0.2-1-0.3-1.5-0.3s-1,0.1-1.5,0.3c-0.5,0.2-0.9,0.5-1.2,0.9c-0.4,0.4-0.6,0.8-0.8,1.3c-0.2,0.5-0.3,1.1-0.3,1.7v0.3
			c0,0.6,0.1,1.2,0.3,1.7c0.2,0.5,0.5,1,0.8,1.3c0.4,0.4,0.8,0.6,1.2,0.8C65.9,140.8,66.4,140.9,67,140.9z"/>
		<path fill="#676767" d="M84.2,130.8h1.8v11.4h-1.8v-2.1h-0.3c-0.4,0.7-0.8,1.3-1.4,1.7c-0.6,0.4-1.4,0.6-2.3,0.6
			c-0.6,0-1.2-0.1-1.7-0.3s-1-0.5-1.4-0.9c-0.4-0.4-0.7-0.9-0.9-1.5c-0.2-0.6-0.3-1.3-0.3-2.1v-6.8h1.8v6.6c0,1.2,0.2,2.1,0.7,2.6
			c0.5,0.6,1.2,0.8,2.3,0.8c1.1,0,1.9-0.4,2.6-1.1c0.6-0.7,0.9-1.7,0.9-3V130.8z"/>
		<path fill="#676767" d="M98.9,140.5h-0.3c-0.2,0.4-0.4,0.7-0.7,0.9c-0.3,0.3-0.6,0.5-0.9,0.6c-0.3,0.2-0.7,0.3-1,0.4
			c-0.4,0.1-0.7,0.1-1.1,0.1c-0.8,0-1.5-0.1-2.1-0.4c-0.7-0.3-1.2-0.6-1.7-1.1c-0.5-0.5-0.9-1.1-1.2-1.8c-0.3-0.7-0.4-1.6-0.4-2.5
			v-0.4c0-0.9,0.1-1.7,0.4-2.5c0.3-0.7,0.7-1.3,1.2-1.8c0.5-0.5,1.1-0.9,1.7-1.1c0.7-0.3,1.4-0.4,2.1-0.4c0.8,0,1.5,0.2,2.2,0.5
			c0.7,0.3,1.2,0.9,1.6,1.6h0.3v-6.5h1.8v16.1h-1.8V140.5z M95.1,140.9c0.5,0,1-0.1,1.5-0.3c0.5-0.2,0.9-0.5,1.2-0.8
			s0.6-0.8,0.8-1.3c0.2-0.5,0.3-1.1,0.3-1.7v-0.3c0-0.6-0.1-1.2-0.3-1.7c-0.2-0.5-0.5-1-0.8-1.3c-0.3-0.4-0.8-0.7-1.2-0.9
			c-0.5-0.2-1-0.3-1.5-0.3c-0.5,0-1,0.1-1.5,0.3c-0.5,0.2-0.9,0.5-1.2,0.8s-0.6,0.8-0.8,1.3c-0.2,0.5-0.3,1.1-0.3,1.7v0.4
			c0,0.6,0.1,1.2,0.3,1.7c0.2,0.5,0.5,0.9,0.8,1.3s0.7,0.6,1.2,0.8C94,140.8,94.5,140.9,95.1,140.9z"/>
		<path fill="#676767" d="M126.4,141.4h0.3v-15.3h1.9v16.1h-3.9l-4.6-15.3h-0.3v15.3h-1.9v-16.1h3.9L126.4,141.4z"/>
		<path fill="#676767" d="M140.5,140.3h-0.3c-0.4,0.8-0.9,1.3-1.5,1.7c-0.7,0.4-1.3,0.6-2.1,0.6c-0.8,0-1.4-0.1-2.1-0.4
			c-0.6-0.3-1.2-0.6-1.7-1.1c-0.5-0.5-0.9-1.1-1.1-1.8c-0.3-0.7-0.4-1.6-0.4-2.5v-0.4c0-0.9,0.1-1.8,0.4-2.5
			c0.3-0.7,0.7-1.3,1.1-1.8c0.5-0.5,1-0.9,1.7-1.1c0.6-0.3,1.3-0.4,2-0.4c0.8,0,1.5,0.2,2.1,0.5c0.6,0.3,1.1,0.9,1.5,1.6h0.3v-1.8
			h1.8v9.1c0,0.5,0.2,0.7,0.6,0.7h0.6v1.7h-1.2c-0.5,0-0.9-0.2-1.3-0.5c-0.3-0.3-0.5-0.8-0.5-1.3V140.3z M136.9,140.9
			c0.5,0,1-0.1,1.5-0.3c0.5-0.2,0.8-0.5,1.2-0.8s0.6-0.8,0.8-1.3c0.2-0.5,0.3-1.1,0.3-1.7v-0.3c0-0.6-0.1-1.2-0.3-1.7
			c-0.2-0.5-0.4-1-0.8-1.3c-0.3-0.4-0.7-0.7-1.2-0.9c-0.5-0.2-0.9-0.3-1.5-0.3c-0.5,0-1,0.1-1.5,0.3s-0.8,0.5-1.2,0.8
			c-0.3,0.4-0.6,0.8-0.8,1.3c-0.2,0.5-0.3,1.1-0.3,1.7v0.4c0,1.3,0.3,2.3,1,3C134.9,140.5,135.8,140.9,136.9,140.9z"/>
		<path fill="#676767" d="M145.9,130.8h3.6v-4.7h1.8v4.7h4.4v1.7h-4.4v7.4c0,0.5,0.2,0.7,0.6,0.7h3.2v1.7h-3.9
			c-0.5,0-0.9-0.2-1.3-0.5c-0.3-0.3-0.5-0.8-0.5-1.3v-8h-3.6V130.8z"/>
		<path fill="#676767" d="M160.7,140.6h4v-8.1h-3.6v-1.7h5.4v9.7h3.7v1.7h-9.5V140.6z M163.9,127.4c0-0.4,0.2-0.8,0.5-1.1
			c0.3-0.3,0.7-0.5,1.1-0.5s0.8,0.2,1.1,0.5c0.3,0.3,0.5,0.7,0.5,1.1c0,0.4-0.2,0.8-0.5,1.1c-0.3,0.3-0.7,0.5-1.1,0.5
			s-0.8-0.2-1.1-0.5C164.1,128.3,163.9,127.9,163.9,127.4z"/>
		<path fill="#676767" d="M181.2,142.2h-3.5l-4-11.4h2.1l3.5,10.6h0.3l3.5-10.6h2.1L181.2,142.2z"/>
		<path fill="#676767" d="M189.8,137.1c0,1.1,0.4,2,1.1,2.7c0.7,0.7,1.6,1,2.8,1c0.5,0,1-0.1,1.4-0.2c0.4-0.1,0.7-0.3,1-0.5
			c0.3-0.2,0.5-0.5,0.7-0.7c0.2-0.3,0.3-0.6,0.4-0.9l1.7,0.5c-0.3,1.1-0.9,1.9-1.8,2.6c-0.9,0.7-2,1-3.5,1c-0.8,0-1.6-0.1-2.2-0.4
			s-1.3-0.7-1.8-1.2c-0.5-0.5-0.9-1.1-1.1-1.9c-0.3-0.7-0.4-1.5-0.4-2.4v-0.6c0-0.8,0.1-1.5,0.4-2.2s0.7-1.3,1.2-1.8
			s1.1-0.9,1.8-1.2c0.7-0.3,1.4-0.4,2.2-0.4c0.9,0,1.7,0.2,2.4,0.5c0.7,0.3,1.2,0.8,1.7,1.3s0.8,1.1,1,1.7c0.2,0.6,0.3,1.1,0.3,1.7
			v1.5H189.8z M193.6,132.2c-0.5,0-1,0.1-1.4,0.2c-0.4,0.2-0.8,0.4-1.1,0.7c-0.3,0.3-0.6,0.6-0.8,1s-0.3,0.8-0.4,1.3h7.4
			c0-0.5-0.1-0.9-0.4-1.3c-0.2-0.4-0.5-0.7-0.8-1c-0.3-0.3-0.7-0.5-1.1-0.6C194.5,132.3,194.1,132.2,193.6,132.2z"/>
		<path fill="#676767" d="M216.8,126.1h9.7v1.8h-7.8v5.3h7.7v1.8h-7.7v5.4h8v1.8h-9.9V126.1z"/>
		<path fill="#676767" d="M232.5,142.2h-1.8v-11.4h1.8v1.9h0.3c0.7-1.5,1.9-2.3,3.7-2.3c1.3,0,2.4,0.4,3.1,1.2
			c0.8,0.8,1.2,2,1.2,3.7v6.8H239v-6.4c0-1.2-0.3-2.1-0.8-2.7c-0.5-0.6-1.3-0.9-2.2-0.9c-1.1,0-1.9,0.4-2.6,1.1
			c-0.6,0.7-0.9,1.7-0.9,3V142.2z"/>
		<path fill="#676767" d="M253.4,140.5h-0.3c-0.4,0.7-0.9,1.2-1.5,1.6c-0.6,0.3-1.3,0.5-2.1,0.5c-0.8,0-1.5-0.1-2.2-0.4
			s-1.3-0.6-1.8-1.1c-0.5-0.5-0.9-1.1-1.2-1.8c-0.3-0.7-0.4-1.6-0.4-2.5v-0.4c0-0.9,0.2-1.7,0.5-2.5c0.3-0.7,0.7-1.3,1.2-1.8
			c0.5-0.5,1.1-0.9,1.8-1.1c0.7-0.3,1.4-0.4,2.1-0.4c0.8,0,1.6,0.2,2.2,0.5c0.6,0.4,1.1,0.9,1.5,1.6h0.3v-1.8h1.8V145
			c0,0.5-0.2,0.9-0.5,1.3c-0.3,0.3-0.8,0.5-1.3,0.5H246v-1.7h6.8c0.4,0,0.6-0.2,0.6-0.7V140.5z M249.6,140.9c0.5,0,1-0.1,1.5-0.3
			c0.5-0.2,0.9-0.5,1.2-0.8s0.6-0.8,0.8-1.3c0.2-0.5,0.3-1.1,0.3-1.7v-0.3c0-0.6-0.1-1.2-0.3-1.7c-0.2-0.5-0.5-1-0.8-1.3
			c-0.3-0.4-0.8-0.7-1.2-0.9c-0.5-0.2-1-0.3-1.5-0.3c-0.5,0-1,0.1-1.5,0.3c-0.5,0.2-0.9,0.5-1.2,0.8s-0.6,0.8-0.8,1.3
			c-0.2,0.5-0.3,1.1-0.3,1.7v0.4c0,0.6,0.1,1.2,0.3,1.7s0.5,0.9,0.8,1.3s0.7,0.6,1.2,0.8S249.1,140.9,249.6,140.9z"/>
		<path fill="#676767" d="M259.1,140.6h4v-8.1h-3.6v-1.7h5.4v9.7h3.7v1.7h-9.5V140.6z M262.4,127.4c0-0.4,0.2-0.8,0.5-1.1
			c0.3-0.3,0.7-0.5,1.1-0.5s0.8,0.2,1.1,0.5c0.3,0.3,0.5,0.7,0.5,1.1c0,0.4-0.2,0.8-0.5,1.1c-0.3,0.3-0.7,0.5-1.1,0.5
			s-0.8-0.2-1.1-0.5C262.5,128.3,262.4,127.9,262.4,127.4z"/>
		<path fill="#676767" d="M274.7,142.2h-1.8v-11.4h1.8v1.9h0.3c0.7-1.5,1.9-2.3,3.7-2.3c1.3,0,2.4,0.4,3.1,1.2
			c0.8,0.8,1.2,2,1.2,3.7v6.8h-1.8v-6.4c0-1.2-0.3-2.1-0.8-2.7c-0.5-0.6-1.3-0.9-2.2-0.9c-1.1,0-1.9,0.4-2.6,1.1
			c-0.6,0.7-0.9,1.7-0.9,3V142.2z"/>
		<path fill="#676767" d="M288.3,137.1c0,1.1,0.4,2,1.1,2.7c0.7,0.7,1.6,1,2.8,1c0.5,0,1-0.1,1.4-0.2c0.4-0.1,0.7-0.3,1-0.5
			c0.3-0.2,0.5-0.5,0.7-0.7c0.2-0.3,0.3-0.6,0.4-0.9l1.7,0.5c-0.3,1.1-0.9,1.9-1.8,2.6c-0.9,0.7-2,1-3.5,1c-0.8,0-1.6-0.1-2.2-0.4
			s-1.3-0.7-1.8-1.2c-0.5-0.5-0.9-1.1-1.1-1.9c-0.3-0.7-0.4-1.5-0.4-2.4v-0.6c0-0.8,0.1-1.5,0.4-2.2s0.7-1.3,1.2-1.8
			s1.1-0.9,1.8-1.2c0.7-0.3,1.4-0.4,2.2-0.4c0.9,0,1.7,0.2,2.4,0.5c0.7,0.3,1.2,0.8,1.7,1.3s0.8,1.1,1,1.7c0.2,0.6,0.3,1.1,0.3,1.7
			v1.5H288.3z M292.1,132.2c-0.5,0-1,0.1-1.4,0.2c-0.4,0.2-0.8,0.4-1.1,0.7c-0.3,0.3-0.6,0.6-0.8,1s-0.3,0.8-0.4,1.3h7.4
			c0-0.5-0.1-0.9-0.4-1.3c-0.2-0.4-0.5-0.7-0.8-1c-0.3-0.3-0.7-0.5-1.1-0.6C293,132.3,292.5,132.2,292.1,132.2z"/>
		<path fill="#676767" d="M302.3,137.1c0,1.1,0.4,2,1.1,2.7c0.7,0.7,1.6,1,2.8,1c0.5,0,1-0.1,1.4-0.2c0.4-0.1,0.7-0.3,1-0.5
			c0.3-0.2,0.5-0.5,0.7-0.7c0.2-0.3,0.3-0.6,0.4-0.9l1.7,0.5c-0.3,1.1-0.9,1.9-1.8,2.6c-0.9,0.7-2,1-3.5,1c-0.8,0-1.6-0.1-2.2-0.4
			s-1.3-0.7-1.8-1.2c-0.5-0.5-0.9-1.1-1.1-1.9c-0.3-0.7-0.4-1.5-0.4-2.4v-0.6c0-0.8,0.1-1.5,0.4-2.2s0.7-1.3,1.2-1.8
			s1.1-0.9,1.8-1.2c0.7-0.3,1.4-0.4,2.2-0.4c0.9,0,1.7,0.2,2.4,0.5c0.7,0.3,1.2,0.8,1.7,1.3s0.8,1.1,1,1.7c0.2,0.6,0.3,1.1,0.3,1.7
			v1.5H302.3z M306.1,132.2c-0.5,0-1,0.1-1.4,0.2c-0.4,0.2-0.8,0.4-1.1,0.7c-0.3,0.3-0.6,0.6-0.8,1s-0.3,0.8-0.4,1.3h7.4
			c0-0.5-0.1-0.9-0.4-1.3c-0.2-0.4-0.5-0.7-0.8-1c-0.3-0.3-0.7-0.5-1.1-0.6C307,132.3,306.6,132.2,306.1,132.2z"/>
		<path fill="#676767" d="M314.4,130.8h4.1v1.5h0.3c0.3-0.6,0.7-1.1,1.2-1.4c0.5-0.3,1.1-0.4,1.8-0.4c1.1,0,2.1,0.4,2.8,1.1
			c0.7,0.8,1.1,1.8,1.1,3.3l-1.9,0.3c0-1.1-0.3-1.8-0.8-2.3c-0.5-0.5-1.1-0.7-1.9-0.7c-0.5,0-0.9,0.1-1.2,0.3s-0.6,0.4-0.9,0.8
			s-0.4,0.7-0.5,1.1c-0.1,0.4-0.2,0.9-0.2,1.4v4.8h2.9v1.7h-7.3v-1.7h2.6v-8.1h-2.3V130.8z"/>
		<path fill="#676767" d="M329.4,140.6h4v-8.1h-3.6v-1.7h5.4v9.7h3.7v1.7h-9.5V140.6z M332.7,127.4c0-0.4,0.2-0.8,0.5-1.1
			c0.3-0.3,0.7-0.5,1.1-0.5s0.8,0.2,1.1,0.5c0.3,0.3,0.5,0.7,0.5,1.1c0,0.4-0.2,0.8-0.5,1.1c-0.3,0.3-0.7,0.5-1.1,0.5
			s-0.8-0.2-1.1-0.5C332.8,128.3,332.7,127.9,332.7,127.4z"/>
		<path fill="#676767" d="M345,142.2h-1.8v-11.4h1.8v1.9h0.3c0.7-1.5,1.9-2.3,3.7-2.3c1.3,0,2.4,0.4,3.1,1.2c0.8,0.8,1.2,2,1.2,3.7
			v6.8h-1.8v-6.4c0-1.2-0.3-2.1-0.8-2.7c-0.5-0.6-1.3-0.9-2.2-0.9c-1.1,0-1.9,0.4-2.6,1.1c-0.6,0.7-0.9,1.7-0.9,3V142.2z"/>
		<path fill="#676767" d="M365.9,140.5h-0.3c-0.4,0.7-0.9,1.2-1.5,1.6c-0.6,0.3-1.3,0.5-2.1,0.5c-0.8,0-1.5-0.1-2.2-0.4
			s-1.3-0.6-1.8-1.1c-0.5-0.5-0.9-1.1-1.2-1.8c-0.3-0.7-0.4-1.6-0.4-2.5v-0.4c0-0.9,0.2-1.7,0.5-2.5c0.3-0.7,0.7-1.3,1.2-1.8
			c0.5-0.5,1.1-0.9,1.8-1.1c0.7-0.3,1.4-0.4,2.1-0.4c0.8,0,1.6,0.2,2.2,0.5c0.6,0.4,1.1,0.9,1.5,1.6h0.3v-1.8h1.8V145
			c0,0.5-0.2,0.9-0.5,1.3c-0.3,0.3-0.8,0.5-1.3,0.5h-7.4v-1.7h6.8c0.4,0,0.6-0.2,0.6-0.7V140.5z M362.1,140.9c0.5,0,1-0.1,1.5-0.3
			c0.5-0.2,0.9-0.5,1.2-0.8s0.6-0.8,0.8-1.3c0.2-0.5,0.3-1.1,0.3-1.7v-0.3c0-0.6-0.1-1.2-0.3-1.7c-0.2-0.5-0.5-1-0.8-1.3
			c-0.3-0.4-0.8-0.7-1.2-0.9c-0.5-0.2-1-0.3-1.5-0.3c-0.5,0-1,0.1-1.5,0.3c-0.5,0.2-0.9,0.5-1.2,0.8s-0.6,0.8-0.8,1.3
			c-0.2,0.5-0.3,1.1-0.3,1.7v0.4c0,0.6,0.1,1.2,0.3,1.7s0.5,0.9,0.8,1.3s0.7,0.6,1.2,0.8S361.6,140.9,362.1,140.9z"/>
		<path fill="#676767" d="M394.2,130.8c0-0.5-0.1-1-0.3-1.4c-0.2-0.4-0.5-0.7-0.8-1c-0.4-0.3-0.8-0.5-1.2-0.6
			c-0.5-0.1-0.9-0.2-1.4-0.2c-0.4,0-0.9,0.1-1.3,0.2s-0.8,0.3-1.1,0.5c-0.3,0.2-0.6,0.5-0.7,0.8c-0.2,0.3-0.3,0.7-0.3,1.1v0.1
			c0,0.4,0.1,0.8,0.3,1.1c0.2,0.3,0.5,0.6,0.8,0.8c0.4,0.2,0.8,0.4,1.3,0.6c0.5,0.1,1.2,0.3,1.9,0.4c1.7,0.3,2.9,0.8,3.7,1.5
			c0.8,0.7,1.2,1.7,1.2,2.9v0.3c0,0.7-0.1,1.3-0.4,1.9c-0.2,0.6-0.6,1.1-1.1,1.5c-0.5,0.4-1,0.7-1.7,1c-0.7,0.2-1.5,0.3-2.4,0.3
			c-1,0-1.9-0.2-2.7-0.4c-0.8-0.3-1.4-0.7-2-1.2c-0.5-0.5-0.9-1.1-1.2-1.9c-0.3-0.7-0.4-1.5-0.4-2.3V136h1.9v0.6
			c0,1.4,0.4,2.5,1.2,3.2c0.8,0.7,1.8,1.1,3.2,1.1c1.2,0,2.1-0.3,2.7-0.8c0.6-0.5,0.9-1.2,0.9-2.1v-0.1c0-0.8-0.3-1.5-0.9-1.9
			c-0.6-0.4-1.6-0.8-3-1c-0.8-0.1-1.5-0.3-2.2-0.5c-0.7-0.2-1.2-0.5-1.7-0.9c-0.5-0.4-0.8-0.8-1.1-1.3s-0.4-1.1-0.4-1.8v-0.3
			c0-0.6,0.1-1.2,0.4-1.7c0.3-0.5,0.6-1,1.1-1.4c0.5-0.4,1-0.7,1.7-0.9s1.4-0.3,2.1-0.3c0.9,0,1.7,0.1,2.4,0.4
			c0.7,0.3,1.3,0.6,1.8,1c0.5,0.4,0.9,1,1.1,1.5s0.4,1.2,0.4,1.8v1h-1.9V130.8z"/>
		<path fill="#676767" d="M399.1,130.8h3.6v-4.7h1.8v4.7h4.4v1.7h-4.4v7.4c0,0.5,0.2,0.7,0.6,0.7h3.2v1.7h-3.9
			c-0.5,0-0.9-0.2-1.3-0.5c-0.3-0.3-0.5-0.8-0.5-1.3v-8h-3.6V130.8z"/>
		<path fill="#676767" d="M421.7,130.8h1.8v11.4h-1.8v-2.1h-0.3c-0.4,0.7-0.8,1.3-1.4,1.7c-0.6,0.4-1.4,0.6-2.3,0.6
			c-0.6,0-1.2-0.1-1.7-0.3s-1-0.5-1.4-0.9c-0.4-0.4-0.7-0.9-0.9-1.5c-0.2-0.6-0.3-1.3-0.3-2.1v-6.8h1.8v6.6c0,1.2,0.2,2.1,0.7,2.6
			c0.5,0.6,1.2,0.8,2.3,0.8c1.1,0,1.9-0.4,2.6-1.1c0.6-0.7,0.9-1.7,0.9-3V130.8z"/>
		<path fill="#676767" d="M436.4,140.5h-0.3c-0.2,0.4-0.4,0.7-0.7,0.9c-0.3,0.3-0.6,0.5-0.9,0.6c-0.3,0.2-0.7,0.3-1,0.4
			c-0.4,0.1-0.7,0.1-1.1,0.1c-0.8,0-1.5-0.1-2.1-0.4c-0.7-0.3-1.2-0.6-1.7-1.1c-0.5-0.5-0.9-1.1-1.2-1.8c-0.3-0.7-0.4-1.6-0.4-2.5
			v-0.4c0-0.9,0.1-1.7,0.4-2.5c0.3-0.7,0.7-1.3,1.2-1.8c0.5-0.5,1.1-0.9,1.7-1.1c0.7-0.3,1.4-0.4,2.1-0.4c0.8,0,1.5,0.2,2.2,0.5
			c0.7,0.3,1.2,0.9,1.6,1.6h0.3v-6.5h1.8v16.1h-1.8V140.5z M432.6,140.9c0.5,0,1-0.1,1.5-0.3c0.5-0.2,0.9-0.5,1.2-0.8
			s0.6-0.8,0.8-1.3c0.2-0.5,0.3-1.1,0.3-1.7v-0.3c0-0.6-0.1-1.2-0.3-1.7c-0.2-0.5-0.5-1-0.8-1.3c-0.3-0.4-0.8-0.7-1.2-0.9
			c-0.5-0.2-1-0.3-1.5-0.3c-0.5,0-1,0.1-1.5,0.3c-0.5,0.2-0.9,0.5-1.2,0.8s-0.6,0.8-0.8,1.3c-0.2,0.5-0.3,1.1-0.3,1.7v0.4
			c0,0.6,0.1,1.2,0.3,1.7c0.2,0.5,0.5,0.9,0.8,1.3s0.7,0.6,1.2,0.8C431.5,140.8,432,140.9,432.6,140.9z"/>
		<path fill="#676767" d="M441.9,140.6h4v-8.1h-3.6v-1.7h5.4v9.7h3.7v1.7h-9.5V140.6z M445.2,127.4c0-0.4,0.2-0.8,0.5-1.1
			c0.3-0.3,0.7-0.5,1.1-0.5s0.8,0.2,1.1,0.5c0.3,0.3,0.5,0.7,0.5,1.1c0,0.4-0.2,0.8-0.5,1.1c-0.3,0.3-0.7,0.5-1.1,0.5
			s-0.8-0.2-1.1-0.5C445.3,128.3,445.2,127.9,445.2,127.4z"/>
		<path fill="#676767" d="M466.5,136.7c0,1-0.2,1.8-0.5,2.5c-0.3,0.7-0.7,1.3-1.3,1.8s-1.1,0.9-1.8,1.1c-0.7,0.3-1.4,0.4-2.2,0.4
			c-0.8,0-1.5-0.1-2.2-0.4s-1.3-0.6-1.8-1.1c-0.5-0.5-0.9-1.1-1.3-1.8c-0.3-0.7-0.5-1.6-0.5-2.5v-0.3c0-0.9,0.2-1.8,0.5-2.5
			c0.3-0.7,0.7-1.3,1.3-1.8c0.5-0.5,1.1-0.9,1.8-1.1c0.7-0.3,1.4-0.4,2.2-0.4s1.5,0.1,2.2,0.4c0.7,0.3,1.3,0.6,1.8,1.1
			c0.5,0.5,0.9,1.1,1.3,1.8c0.3,0.7,0.5,1.6,0.5,2.5V136.7z M460.7,140.9c0.6,0,1.1-0.1,1.5-0.3c0.5-0.2,0.9-0.5,1.2-0.8
			c0.4-0.4,0.6-0.8,0.8-1.3c0.2-0.5,0.3-1.1,0.3-1.7v-0.3c0-0.6-0.1-1.2-0.3-1.7c-0.2-0.5-0.5-1-0.8-1.3c-0.4-0.4-0.8-0.7-1.2-0.9
			c-0.5-0.2-1-0.3-1.5-0.3s-1,0.1-1.5,0.3c-0.5,0.2-0.9,0.5-1.2,0.9c-0.4,0.4-0.6,0.8-0.8,1.3c-0.2,0.5-0.3,1.1-0.3,1.7v0.3
			c0,0.6,0.1,1.2,0.3,1.7c0.2,0.5,0.5,1,0.8,1.3c0.4,0.4,0.8,0.6,1.2,0.8C459.7,140.8,460.2,140.9,460.7,140.9z"/>
	</g>
	<g>
		<path fill="#333333" d="M6.1,107.2H0V53h6.1v6.1H7c1.3-2.3,3.2-4.1,5.6-5.3c2.4-1.2,5-1.8,7.8-1.8c2.4,0,4.6,0.4,6.8,1.3
			c2.1,0.9,4,2.2,5.6,3.8c1.6,1.7,2.9,3.7,3.9,6.2c1,2.4,1.4,5.2,1.4,8.3v1.6c0,3.2-0.5,6-1.4,8.4c-0.9,2.4-2.2,4.5-3.9,6.2
			c-1.6,1.7-3.5,2.9-5.7,3.8c-2.2,0.9-4.5,1.3-6.9,1.3c-1.2,0-2.5-0.1-3.8-0.4c-1.3-0.3-2.5-0.7-3.7-1.3c-1.2-0.6-2.2-1.3-3.2-2.2
			c-1-0.9-1.8-1.9-2.5-3.1H6.1V107.2z M19,87c1.9,0,3.6-0.3,5.1-1c1.6-0.6,2.9-1.6,4.1-2.8c1.2-1.2,2.1-2.6,2.7-4.4
			c0.6-1.7,1-3.6,1-5.8v-1.6c0-2.1-0.3-4-1-5.6c-0.7-1.7-1.6-3.1-2.7-4.4c-1.2-1.2-2.5-2.2-4.1-2.8c-1.6-0.7-3.3-1-5.1-1
			c-1.8,0-3.5,0.4-5.1,1.1c-1.6,0.7-2.9,1.7-4.1,2.9c-1.2,1.2-2.1,2.7-2.8,4.5c-0.7,1.7-1,3.6-1,5.7v0.9c0,2.1,0.3,4.1,1,5.8
			c0.7,1.7,1.6,3.2,2.8,4.5c1.2,1.2,2.5,2.2,4.1,2.9C15.5,86.7,17.2,87,19,87z"/>
		<path fill="#333333" d="M45.2,86.1h14V42.8H45.6v-5.6h19.6v48.9h14v5.6H45.2V86.1z"/>
		<path fill="#333333" d="M117,85.1H116c-1.2,2.6-3,4.5-5.2,5.8c-2.2,1.2-4.5,1.9-7,1.9c-2.5,0-4.9-0.4-7.1-1.3
			c-2.2-0.9-4.1-2.1-5.7-3.8c-1.6-1.7-2.9-3.8-3.9-6.2c-0.9-2.4-1.4-5.3-1.4-8.5v-1.2c0-3.2,0.5-6,1.4-8.4c0.9-2.4,2.2-4.5,3.9-6.2
			c1.6-1.7,3.5-3,5.7-3.9c2.2-0.9,4.5-1.3,6.9-1.3c2.6,0,5,0.6,7.2,1.8c2.2,1.2,3.9,3,5.1,5.4h0.9V53h6.1v30.7
			c0,1.6,0.7,2.3,2.1,2.3h1.9v5.6h-4.1c-1.8,0-3.2-0.6-4.3-1.7c-1.1-1.1-1.7-2.6-1.7-4.4V85.1z M104.5,87c1.8,0,3.5-0.3,5-1
			c1.5-0.7,2.8-1.6,3.9-2.9c1.1-1.2,1.9-2.7,2.6-4.5c0.6-1.7,0.9-3.7,0.9-5.8v-0.9c0-2.1-0.3-4-0.9-5.7c-0.6-1.7-1.5-3.2-2.6-4.5
			c-1.1-1.2-2.4-2.2-4-2.9c-1.5-0.7-3.2-1.1-4.9-1.1c-1.8,0-3.5,0.3-5,1c-1.5,0.7-2.8,1.6-3.9,2.8c-1.1,1.2-2,2.7-2.6,4.4
			c-0.6,1.7-0.9,3.6-0.9,5.7V73c0,4.4,1.2,7.9,3.5,10.3C97.8,85.8,100.8,87,104.5,87z"/>
		<path fill="#333333" d="M147,53H159v-9.8c0-1.8,0.6-3.2,1.7-4.4c1.1-1.1,2.6-1.7,4.3-1.7h15.3v5.6h-13.1c-1.4,0-2.1,0.8-2.1,2.3
			V53h16.1v5.6H165v33H159v-33H147V53z"/>
		<path fill="#333333" d="M223.6,72.8c0,3.2-0.5,6.1-1.6,8.5c-1.1,2.5-2.5,4.5-4.2,6.2c-1.8,1.7-3.8,3-6.2,3.9
			c-2.4,0.9-4.8,1.3-7.4,1.3c-2.6,0-5.1-0.4-7.4-1.3c-2.3-0.9-4.4-2.2-6.2-3.9c-1.8-1.7-3.2-3.8-4.2-6.2c-1.1-2.5-1.6-5.3-1.6-8.5
			v-0.9c0-3.2,0.5-6,1.6-8.4c1.1-2.5,2.5-4.6,4.3-6.3c1.8-1.7,3.9-3,6.2-3.9c2.3-0.9,4.8-1.3,7.3-1.3c2.5,0,5,0.4,7.3,1.3
			c2.3,0.9,4.4,2.2,6.2,3.9c1.8,1.7,3.2,3.8,4.3,6.3c1.1,2.5,1.6,5.3,1.6,8.4V72.8z M204.2,87c1.9,0,3.6-0.3,5.2-1
			c1.6-0.6,3-1.6,4.2-2.8c1.2-1.2,2.1-2.7,2.8-4.5c0.7-1.7,1-3.7,1-5.9v-0.9c0-2.1-0.3-4-1-5.7c-0.7-1.7-1.6-3.2-2.8-4.5
			c-1.2-1.2-2.6-2.2-4.2-2.9c-1.6-0.7-3.3-1.1-5.1-1.1c-1.8,0-3.5,0.4-5.1,1.1c-1.6,0.7-3,1.7-4.2,2.9c-1.2,1.2-2.1,2.7-2.8,4.5
			c-0.7,1.7-1,3.6-1,5.7v0.9c0,2.2,0.3,4.1,1,5.9c0.7,1.7,1.6,3.2,2.8,4.5c1.2,1.2,2.6,2.2,4.2,2.8C200.7,86.7,202.4,87,204.2,87z"
			/>
		<path fill="#333333" d="M229.8,53h14v5.1h0.9c1-2.1,2.4-3.7,4.2-4.7c1.8-1,3.9-1.5,6.2-1.5c3.9,0,7,1.3,9.4,3.8
			c2.4,2.5,3.7,6.3,3.8,11.1l-6.4,0.9c0-3.6-0.9-6.2-2.6-7.7c-1.7-1.6-3.8-2.4-6.3-2.4c-1.6,0-3,0.3-4.2,0.9
			c-1.2,0.6-2.1,1.5-2.9,2.6c-0.8,1.1-1.4,2.4-1.7,3.8c-0.4,1.5-0.5,3-0.5,4.7v16.4h9.8v5.6h-24.8v-5.6h8.9V58.6h-7.9V53z"/>
		<path fill="#333333" d="M314.9,91.7h-6.1V63.9c0-1.8-0.4-3.3-1.2-4.5c-0.8-1.2-2.2-1.8-4-1.8c-1.7,0-3.1,0.6-4.2,1.9
			c-1.1,1.3-1.6,3.2-1.6,5.9v26.2h-6.1v-28c0-1.7-0.5-3.1-1.4-4.2c-0.9-1.1-2.2-1.7-3.7-1.7c-1.9,0-3.3,0.7-4.3,2
			c-1,1.4-1.5,3.1-1.5,5.3v26.6h-6.1V53h6.1v4.2h0.9c0.7-1.8,1.7-3.2,3-4c1.3-0.9,2.8-1.3,4.6-1.3c1.9,0,3.4,0.5,4.6,1.5
			c1.2,1,2.1,2.3,2.5,3.8h0.9c1.8-3.5,4.6-5.3,8.4-5.3c2.9,0,5.2,0.9,6.7,2.8c1.6,1.8,2.4,4.2,2.4,7.2V91.7z"/>
		<path fill="#333333" d="M350.5,85.1h-0.9c-1.2,2.6-3,4.5-5.2,5.8c-2.2,1.2-4.5,1.9-7,1.9c-2.5,0-4.9-0.4-7.1-1.3
			c-2.2-0.9-4.1-2.1-5.7-3.8c-1.6-1.7-2.9-3.8-3.9-6.2c-0.9-2.4-1.4-5.3-1.4-8.5v-1.2c0-3.2,0.5-6,1.4-8.4c0.9-2.4,2.2-4.5,3.9-6.2
			c1.6-1.7,3.5-3,5.7-3.9c2.2-0.9,4.5-1.3,6.9-1.3c2.6,0,5,0.6,7.2,1.8c2.2,1.2,3.9,3,5.1,5.4h0.9V53h6.1v30.7
			c0,1.6,0.7,2.3,2.1,2.3h1.9v5.6h-4.1c-1.8,0-3.2-0.6-4.3-1.7c-1.1-1.1-1.7-2.6-1.7-4.4V85.1z M338,87c1.8,0,3.5-0.3,5-1
			c1.5-0.7,2.8-1.6,3.9-2.9c1.1-1.2,1.9-2.7,2.6-4.5c0.6-1.7,0.9-3.7,0.9-5.8v-0.9c0-2.1-0.3-4-0.9-5.7c-0.6-1.7-1.5-3.2-2.6-4.5
			c-1.1-1.2-2.4-2.2-4-2.9c-1.5-0.7-3.2-1.1-4.9-1.1c-1.8,0-3.5,0.3-5,1c-1.5,0.7-2.8,1.6-3.9,2.8c-1.1,1.2-2,2.7-2.6,4.4
			c-0.6,1.7-0.9,3.6-0.9,5.7V73c0,4.4,1.2,7.9,3.5,10.3C331.4,85.8,334.4,87,338,87z"/>
		<path fill="#333333" d="M414.4,72.8c0,3.2-0.5,6.1-1.6,8.5c-1.1,2.5-2.5,4.5-4.2,6.2c-1.8,1.7-3.8,3-6.2,3.9
			c-2.4,0.9-4.8,1.3-7.4,1.3c-2.6,0-5.1-0.4-7.4-1.3c-2.3-0.9-4.4-2.2-6.2-3.9c-1.8-1.7-3.2-3.8-4.2-6.2c-1.1-2.5-1.6-5.3-1.6-8.5
			v-0.9c0-3.2,0.5-6,1.6-8.4c1.1-2.5,2.5-4.6,4.3-6.3c1.8-1.7,3.9-3,6.2-3.9c2.3-0.9,4.8-1.3,7.3-1.3c2.5,0,5,0.4,7.3,1.3
			c2.3,0.9,4.4,2.2,6.2,3.9c1.8,1.7,3.2,3.8,4.3,6.3c1.1,2.5,1.6,5.3,1.6,8.4V72.8z M395,87c1.9,0,3.6-0.3,5.2-1
			c1.6-0.6,3-1.6,4.2-2.8c1.2-1.2,2.1-2.7,2.8-4.5c0.7-1.7,1-3.7,1-5.9v-0.9c0-2.1-0.3-4-1-5.7c-0.7-1.7-1.6-3.2-2.8-4.5
			c-1.2-1.2-2.6-2.2-4.2-2.9c-1.6-0.7-3.3-1.1-5.1-1.1c-1.8,0-3.5,0.4-5.1,1.1c-1.6,0.7-3,1.7-4.2,2.9c-1.2,1.2-2.1,2.7-2.8,4.5
			c-0.7,1.7-1,3.6-1,5.7v0.9c0,2.2,0.3,4.1,1,5.9c0.7,1.7,1.6,3.2,2.8,4.5c1.2,1.2,2.6,2.2,4.2,2.8C391.4,86.7,393.2,87,395,87z"/>
		<path fill="#333333" d="M419.6,53h14v5.1h0.9c1-2.1,2.4-3.7,4.2-4.7c1.8-1,3.9-1.5,6.2-1.5c3.9,0,7,1.3,9.4,3.8
			c2.4,2.5,3.7,6.3,3.8,11.1l-6.4,0.9c0-3.6-0.9-6.2-2.6-7.7c-1.7-1.6-3.8-2.4-6.3-2.4c-1.6,0-3,0.3-4.2,0.9
			c-1.2,0.6-2.1,1.5-2.9,2.6c-0.8,1.1-1.4,2.4-1.7,3.8c-0.4,1.5-0.5,3-0.5,4.7v16.4h9.8v5.6h-24.8v-5.6h8.9V58.6h-7.9V53z"/>
		<path fill="#333333" d="M493.5,84.7h-0.9c-1.2,2.5-2.9,4.5-4.9,5.9c-2,1.5-4.6,2.2-7.7,2.2c-2.1,0-4.1-0.4-5.9-1.1
			c-1.8-0.7-3.3-1.8-4.6-3.2c-1.3-1.4-2.3-3.1-3-5.2c-0.7-2.1-1.1-4.5-1.1-7.2V53h6.1v22.3c0,4,0.8,7,2.5,8.9
			c1.7,1.9,4.2,2.8,7.6,2.8c3.7,0,6.6-1.3,8.7-3.8c2.1-2.5,3.2-5.9,3.2-10.1V53h6.1v48.1c0,1.8-0.6,3.2-1.7,4.4
			c-1.1,1.1-2.6,1.7-4.3,1.7h-22v-5.6h19.9c1.4,0,2.1-0.8,2.1-2.3V84.7z"/>
		<g>
			<g>
				<g enable-background="new    ">
					<g>
						<polygon fill="#81B94C" points="371.2,4.8 386.8,4.8 386.9,10.9 371.2,10.9 						"/>
					</g>
					<g>
						<polygon fill="#456329" points="386.9,10.9 383.5,11.1 367.8,11.1 371.2,10.9 						"/>
					</g>
					<g>
						<polygon fill="#456329" points="371.2,10.9 367.8,11.1 367.8,5 371.2,4.8 						"/>
					</g>
					<g>
						<polygon fill="#456329" points="386.6,23.1 383.2,23.3 367.9,23.3 371.3,23.1 						"/>
					</g>
					<g>
						<polygon fill="#456329" points="371.3,23.7 367.9,23.9 367.9,17.3 371.3,17.1 						"/>
					</g>
					<g>
						<polygon fill="#456329" points="365.4,4.8 362,5 361.9,0.1 365.3,-0.1 						"/>
					</g>
					<g>
						<polygon fill="#456329" points="365.4,10.9 362,11.1 362,5 365.4,4.8 						"/>
					</g>
					<g>
						<polygon fill="#456329" points="365.4,17.1 362,17.3 362,11.1 365.4,10.9 						"/>
					</g>
					<g>
						<polygon fill="#456329" points="371.3,23.7 367.9,23.9 362.1,23.9 365.5,23.7 						"/>
					</g>
					<g>
						<polygon fill="#81B94C" points="371.2,-0.1 371.2,4.8 371.2,10.9 371.3,17.1 371.3,23.7 365.5,23.7 365.4,17.1 365.4,10.9 
							365.4,4.8 365.3,-0.1 						"/>
					</g>
					<g>
						<polygon fill="#456329" points="365.5,23.7 362.1,23.9 362,17.3 365.4,17.1 						"/>
					</g>
					<g>
						<polygon fill="#456329" points="371.7,91.6 368.3,91.7 362,91.7 365.5,91.6 						"/>
					</g>
					<g>
						<polygon fill="#456329" points="365.5,91.6 362,91.7 361.6,23.3 365.1,23.1 						"/>
					</g>
					<g>
						<polygon fill="#456329" points="357.2,23.1 353.7,23.3 353.7,17.3 357.1,17.1 						"/>
					</g>
					<g>
						<polygon fill="#456329" points="357.2,23.1 353.7,23.3 346.4,23.3 349.8,23.1 						"/>
					</g>
					<g>
						<polygon fill="#81B94C" points="386.5,17.1 386.6,23.1 371.3,23.1 371.7,91.6 365.5,91.6 365.1,23.1 349.8,23.1 357.2,23.1 
							357.1,17.1 365.4,17.1 365.5,23.7 371.3,23.7 371.3,17.1 						"/>
					</g>
					<g>
						<polygon fill="#456329" points="365.1,23.1 361.6,23.3 346.4,23.3 349.8,23.1 						"/>
					</g>
					<g>
						<polygon fill="#456329" points="349.8,23.1 346.4,23.3 157,23.3 160.4,23.1 						"/>
					</g>
					<g>
						<polygon fill="#456329" points="146.8,23.1 143.4,23.3 143.4,17.3 146.8,17.1 						"/>
					</g>
					<g>
						<polygon fill="#81B94C" points="357.1,17.1 357.2,23.1 349.8,23.1 160.4,23.1 146.8,23.1 146.8,17.1 						"/>
					</g>
					<g>
						<polygon fill="#456329" points="160.4,23.1 157,23.3 143.4,23.3 146.8,23.1 						"/>
					</g>
					<g>
						<polygon fill="#81B94C" points="144.9,10.9 144.9,4.8 365.4,4.8 365.4,10.9 						"/>
					</g>
					<g>
						<polygon fill="#456329" points="144.9,10.9 141.5,11.1 141.5,5 144.9,4.8 						"/>
					</g>
					<g>
						<polygon fill="#456329" points="365.4,10.9 362,11.1 141.5,11.1 144.9,10.9 						"/>
					</g>
					<g>
						<polygon fill="#456329" points="160.4,23.1 157,23.3 141.7,23.3 145.1,23.1 						"/>
					</g>
					<g>
						<polygon fill="#456329" points="145,23.7 141.6,23.9 141.5,17.3 145,17.1 						"/>
					</g>
					<g>
						<polygon fill="#456329" points="139,4.8 135.6,5 135.6,0.1 139,-0.1 						"/>
					</g>
					<g>
						<polygon fill="#456329" points="139.1,10.9 135.7,11.1 135.6,5 139,4.8 						"/>
					</g>
					<g>
						<polygon fill="#456329" points="139.1,17.1 135.7,17.3 135.7,11.1 139.1,10.9 						"/>
					</g>
					<g>
						<polygon fill="#456329" points="139.2,23.7 135.7,23.9 135.7,17.3 139.1,17.1 						"/>
					</g>
					<g>
						<polygon fill="#456329" points="145,23.7 141.6,23.9 135.7,23.9 139.2,23.7 						"/>
					</g>
					<g>
						<polygon fill="#81B94C" points="144.9,-0.1 144.9,4.8 144.9,10.9 145,17.1 145,23.7 139.2,23.7 139.1,17.1 139.1,10.9 
							139,4.8 139,-0.1 						"/>
					</g>
					<g>
						<polygon fill="#456329" points="139.3,91.6 135.8,91.7 135.4,23.3 138.9,23.1 						"/>
					</g>
					<g>
						<polygon fill="#456329" points="145.5,91.6 142.1,91.7 135.8,91.7 139.3,91.6 						"/>
					</g>
					<g>
						<polygon fill="#456329" points="123.6,23.1 120.2,23.3 120.1,17.3 123.6,17.1 						"/>
					</g>
					<g>
						<polygon fill="#456329" points="138.9,23.1 135.4,23.3 120.2,23.3 123.6,23.1 						"/>
					</g>
					<g>
						<polygon fill="#81B94C" points="146.8,17.1 146.8,23.1 160.4,23.1 145.1,23.1 145.5,91.6 139.3,91.6 138.9,23.1 123.6,23.1 
							123.6,17.1 139.1,17.1 139.2,23.7 145,23.7 145,17.1 						"/>
					</g>
				</g>
				<g enable-background="new    ">
					<g>
						<polygon fill="#81B94C" points="123.3,10.9 123.3,4.8 139,4.8 139.1,10.9 						"/>
					</g>
					<g>
						<polygon fill="#456329" points="123.3,10.9 119.9,11.1 119.9,5 123.3,4.8 						"/>
					</g>
					<g>
						<polygon fill="#456329" points="139.1,10.9 135.7,11.1 119.9,11.1 123.3,10.9 						"/>
					</g>
				</g>
			</g>
		</g>
	</g>
</g>
</svg>
