<?xml version="1.0" standalone="no"?>
<!DOCTYPE svg PUBLIC "-//W3C//DTD SVG 20010904//EN"
 "http://www.w3.org/TR/2001/REC-SVG-20010904/DTD/svg10.dtd">
<svg version="1.0" xmlns="http://www.w3.org/2000/svg"
 width="512.000000pt" height="512.000000pt" viewBox="0 0 512.000000 512.000000"
 preserveAspectRatio="xMidYMid meet">
<metadata>
Created by potrace 1.11, written by Peter Selinger 2001-2013
</metadata>
<g transform="translate(0.000000,512.000000) scale(0.100000,-0.100000)"
fill="#000000" stroke="none">
<path d="M2405 5104 c-129 -26 -192 -55 -535 -254 -107 -62 -267 -154 -355
-205 -88 -51 -248 -143 -355 -205 -107 -62 -220 -126 -250 -143 -30 -16 -62
-35 -70 -41 -8 -6 -35 -22 -60 -36 -69 -36 -212 -126 -240 -150 -161 -137
-249 -283 -298 -500 -10 -43 -12 -1978 -3 -2003 5 -13 11 -38 14 -55 12 -77
66 -202 122 -283 78 -113 193 -212 340 -294 28 -15 181 -103 340 -195 822
-475 1076 -620 1134 -650 125 -62 241 -88 388 -85 185 4 268 33 538 188 105
60 233 134 285 164 52 29 102 58 110 63 8 6 42 25 75 44 33 18 101 57 150 86
50 29 109 63 133 77 23 13 93 53 154 89 61 35 113 64 115 64 3 0 17 8 31 19
15 10 50 31 77 46 59 33 156 88 205 117 234 137 370 322 426 582 10 49 12 257
10 1031 -1 534 -5 986 -9 1005 -50 229 -171 406 -370 541 -48 32 -90 59 -93
59 -4 0 -150 84 -409 235 -198 115 -553 320 -605 348 -30 17 -79 45 -108 64
-29 18 -55 33 -57 33 -3 0 -60 32 -128 72 -189 110 -254 139 -392 173 -51 13
-247 12 -310 -1z m311 -416 c32 -14 259 -140 502 -281 244 -142 448 -257 453
-257 5 0 9 -4 9 -10 0 -5 4 -10 9 -10 4 0 45 -21 90 -47 45 -27 90 -53 100
-58 448 -254 513 -300 561 -402 51 -107 50 -87 50 -1054 0 -549 -4 -927 -10
-958 -14 -77 -59 -159 -116 -216 -30 -29 -106 -82 -180 -124 -428 -247 -512
-296 -537 -310 -16 -9 -36 -21 -45 -26 -9 -6 -57 -33 -107 -61 -49 -29 -189
-109 -310 -179 -515 -298 -511 -296 -643 -291 -99 4 -138 20 -347 141 -93 54
-183 106 -200 115 -16 10 -59 35 -95 55 -36 21 -85 49 -110 62 -25 14 -49 28
-55 33 -5 4 -30 18 -55 32 -25 14 -191 110 -370 213 -179 103 -345 199 -370
213 -184 102 -267 194 -299 332 -7 29 -11 370 -11 959 0 995 -1 972 57 1077
50 89 105 130 414 308 162 93 384 222 494 286 111 64 207 119 215 123 8 4 30
16 48 27 216 131 547 312 592 324 80 21 193 14 266 -16z"/>
<path d="M1434 3377 c-80 -26 -137 -109 -133 -194 4 -85 20 -105 189 -249 109
-93 406 -343 440 -372 3 -2 -4 -10 -15 -18 -11 -8 -29 -23 -40 -32 -11 -9
-136 -116 -279 -236 -216 -183 -262 -226 -278 -264 -41 -93 -1 -210 87 -256
49 -26 136 -27 180 -4 17 9 98 74 180 143 83 70 172 146 199 169 27 22 113 95
191 161 77 66 162 138 188 159 60 50 88 97 94 161 8 84 -20 130 -147 236 -35
30 -76 64 -90 76 -14 11 -119 101 -235 198 -115 97 -226 192 -247 210 -128
116 -193 141 -284 112z"/>
<path d="M2654 2119 c-45 -13 -110 -81 -121 -127 -26 -101 12 -192 100 -239
29 -17 74 -18 542 -18 l510 0 45 30 c130 88 116 281 -25 346 -37 17 -74 19
-530 18 -269 0 -504 -5 -521 -10z"/>
</g>
</svg>
